<svg height="459pt" viewBox="0 -33 459.228 459" width="459pt" xmlns="http://www.w3.org/2000/svg"><path d="m347.054688 333.980469c-44.441407 0-79.15625-46.835938-80.613282-48.832031-1.792968-2.457032-1.792968-5.792969 0-8.25 1.457032-1.996094 36.171875-48.832032 80.613282-48.832032 44.445312 0 79.15625 46.835938 80.613281 48.832032 1.796875 2.457031 1.796875 5.792968 0 8.25-1.457031 1.996093-36.167969 48.832031-80.613281 48.832031zm-66.003907-52.957031c9.074219 10.785156 35.691407 38.964843 66.003907 38.964843 30.308593 0 56.925781-28.175781 66.003906-38.964843-9.078125-10.789063-35.691406-38.964844-66.003906-38.964844-30.308594 0-56.925782 28.179687-66.003907 38.964844zm0 0"/><path d="m347.054688 316.007812c-19.289063 0-34.980469-15.695312-34.980469-34.984374 0-19.289063 15.691406-34.980469 34.980469-34.980469 19.289062 0 34.984374 15.691406 34.984374 34.980469 0 19.289062-15.695312 34.984374-34.984374 34.984374zm0-55.972656c-11.574219 0-20.988282 9.414063-20.988282 20.988282 0 11.574218 9.414063 20.988281 20.988282 20.988281 11.574218 0 20.992187-9.414063 20.992187-20.988281 0-11.574219-9.417969-20.988282-20.992187-20.988282zm0 0"/><path d="m347.054688 392.96875c-61.726563 0-111.945313-50.21875-111.945313-111.945312 0-61.726563 50.21875-111.945313 111.945313-111.945313 61.726562 0 111.945312 50.21875 111.945312 111.945313 0 61.726562-50.21875 111.945312-111.945312 111.945312zm0-209.898438c-54.007813 0-97.949219 43.941407-97.949219 97.953126 0 54.007812 43.941406 97.949218 97.949219 97.949218 54.011718 0 97.953124-43.941406 97.953124-97.949218 0-54.011719-43.941406-97.953126-97.953124-97.953126zm0 0"/><path d="m244.992188 312.550781h-198.015626c-25.902343 0-46.976562-21.074219-46.976562-46.976562v-218.5c0-25.902344 21.074219-46.9765628 46.976562-46.9765628h259.871094c25.902344 0 46.976563 21.0742188 46.976563 46.9765628v129c0 3.867187-3.132813 7-6.996094 7s-6.996094-3.132813-6.996094-7v-129c0-18.1875-14.796875-32.984375-32.984375-32.984375h-259.871094c-18.1875 0-32.984374 14.796875-32.984374 32.984375v218.5c0 18.1875 14.796874 32.984375 32.984374 32.984375h198.015626c3.863281 0 6.996093 3.132812 6.996093 6.996094 0 3.863281-3.132812 6.996093-6.996093 6.996093zm0 0"/><path d="m346.828125 95.394531h-339.832031c-3.863282 0-6.996094-3.132812-6.996094-6.996093 0-3.863282 3.132812-6.996094 6.996094-6.996094h339.832031c3.863281 0 6.996094 3.132812 6.996094 6.996094 0 3.863281-3.132813 6.996093-6.996094 6.996093zm0 0"/><path d="m100.328125 67.628906c-10.78125 0-19.554687-8.773437-19.554687-19.554687s8.773437-19.554688 19.554687-19.554688 19.554687 8.773438 19.554687 19.554688-8.773437 19.554687-19.554687 19.554687zm0-25.117187c-3.066406 0-5.5625 2.496093-5.5625 5.5625 0 3.066406 2.496094 5.5625 5.5625 5.5625s5.5625-2.496094 5.5625-5.5625c0-3.066407-2.496094-5.5625-5.5625-5.5625zm0 0"/><path d="m43.914062 67.453125c-10.78125 0-19.554687-8.773437-19.554687-19.554687 0-10.785157 8.773437-19.554688 19.554687-19.554688s19.554688 8.769531 19.554688 19.554688c0 10.78125-8.773438 19.554687-19.554688 19.554687zm0-25.117187c-3.066406 0-5.5625 2.496093-5.5625 5.5625 0 3.066406 2.496094 5.5625 5.5625 5.5625 3.066407 0 5.5625-2.496094 5.5625-5.5625 0-3.066407-2.496093-5.5625-5.5625-5.5625zm0 0"/><path d="m156.742188 67.804688c-10.78125 0-19.554688-8.769532-19.554688-19.554688 0-10.78125 8.773438-19.554688 19.554688-19.554688 10.785156 0 19.554687 8.773438 19.554687 19.554688 0 10.785156-8.769531 19.554688-19.554687 19.554688zm0-25.117188c-3.066407 0-5.5625 2.496094-5.5625 5.5625s2.496093 5.5625 5.5625 5.5625c3.070312 0 5.5625-2.496094 5.5625-5.5625s-2.492188-5.5625-5.5625-5.5625zm0 0"/></svg>