<?xml version="1.0" standalone="no"?>
<!DOCTYPE svg PUBLIC "-//W3C//DTD SVG 20010904//EN"
 "http://www.w3.org/TR/2001/REC-SVG-20010904/DTD/svg10.dtd">
<svg version="1.0" xmlns="http://www.w3.org/2000/svg"
 width="700.000000pt" height="700.000000pt" viewBox="0 0 700.000000 700.000000"
 preserveAspectRatio="xMidYMid meet">
<metadata>
Created by potrace 1.16, written by Peter Selinger 2001-2019
</metadata>
<g transform="translate(0.000000,700.000000) scale(0.100000,-0.100000)"
fill="#000000" stroke="none">
<path d="M1640 1005 l0 -345 -45 0 c-33 0 -45 -4 -45 -15 0 -12 14 -15 70 -15
l70 0 0 360 0 360 -25 0 -25 0 0 -345z"/>
<path d="M1990 1331 c0 -11 23 -160 50 -331 28 -171 50 -318 50 -326 0 -10
-12 -14 -40 -14 -29 0 -40 -4 -40 -15 0 -12 14 -15 65 -15 36 0 65 4 65 9 0 4
-25 162 -55 351 -30 189 -55 347 -55 351 0 5 -9 9 -20 9 -13 0 -20 -7 -20 -19z"/>
<path d="M2280 1005 l0 -345 -40 0 c-29 0 -40 -4 -40 -15 0 -12 14 -15 65 -15
l65 0 0 360 0 360 -25 0 -25 0 0 -345z"/>
<path d="M2473 1323 c3 -16 20 -119 38 -231 17 -111 34 -200 37 -197 3 2 9 26
13 52 5 34 0 93 -17 203 -31 204 -30 200 -55 200 -18 0 -21 -5 -16 -27z"/>
<path d="M2731 1288 c-5 -35 -29 -180 -51 -323 -22 -143 -43 -270 -45 -282 -5
-21 -11 -23 -75 -23 -56 0 -70 -3 -70 -15 0 -12 17 -15 95 -15 l94 0 6 33 c19
109 105 661 105 673 0 8 -10 14 -24 14 -22 0 -25 -6 -35 -62z"/>
<path d="M3080 1310 l0 -40 -68 0 c-40 0 -73 -5 -80 -12 -8 -8 -12 -45 -12
-100 0 -87 0 -88 25 -88 24 0 25 2 25 73 0 43 5 78 12 85 7 7 40 12 80 12 l68
0 0 55 c0 52 -1 55 -25 55 -22 0 -25 -4 -25 -40z"/>
<path d="M4660 1315 l0 -35 -68 0 c-40 0 -73 -5 -80 -12 -17 -17 -17 -469 0
-486 35 -35 38 -18 38 216 0 164 3 231 12 240 7 7 39 12 75 12 l63 0 0 50 c0
43 -3 50 -20 50 -16 0 -20 -7 -20 -35z"/>
<path d="M4990 1331 c0 -11 23 -160 50 -331 28 -171 50 -316 50 -321 0 -5 -13
-9 -30 -9 -20 0 -30 -5 -30 -15 0 -12 13 -15 56 -15 48 0 55 2 50 18 -2 9 -28
169 -57 355 -47 297 -55 337 -71 337 -11 0 -18 -7 -18 -19z"/>
<path d="M5420 1315 l0 -35 -80 0 -80 0 0 -105 0 -105 25 0 c25 0 25 1 25 90
l0 90 75 0 75 0 0 50 c0 43 -3 50 -20 50 -16 0 -20 -7 -20 -35z"/>
<path d="M5750 1315 l0 -35 -68 0 c-40 0 -73 -5 -80 -12 -8 -8 -12 -46 -12
-105 0 -93 0 -93 25 -93 25 0 25 1 25 78 0 47 5 83 12 90 7 7 39 12 75 12 l63
0 0 50 c0 43 -3 50 -20 50 -16 0 -20 -7 -20 -35z"/>
<path d="M3470 1308 c18 -31 20 -51 20 -289 0 -250 -1 -257 -23 -290 -35 -53
-78 -69 -179 -69 -74 0 -88 -3 -88 -16 0 -14 17 -15 129 -12 122 3 131 4 156
28 53 50 55 60 55 330 0 264 -1 272 -48 323 -35 37 -46 34 -22 -5z"/>
<path d="M3280 1021 l0 -251 25 0 25 0 0 235 c0 231 0 235 21 235 39 0 13 25
-29 28 l-42 3 0 -250z"/>
<path d="M3940 1251 c-5 -11 -10 -41 -10 -68 l0 -48 110 -84 110 -83 0 -97 c0
-107 -14 -150 -63 -185 -24 -17 -43 -21 -112 -21 -82 0 -83 0 -56 -17 19 -13
47 -18 107 -18 68 0 86 3 109 22 46 36 65 91 65 195 l0 92 -110 83 -109 83 -1
52 c0 50 16 83 42 83 6 0 6 6 -2 15 -18 22 -67 19 -80 -4z"/>
<path d="M3080 1000 l0 -40 -80 0 -80 0 0 -83 c0 -82 9 -107 37 -107 10 0 13
21 13 80 l0 80 80 0 80 0 0 55 c0 52 -1 55 -25 55 -22 0 -25 -4 -25 -40z"/>
<path d="M5420 1005 l0 -35 -80 0 -80 0 0 -150 0 -150 -30 0 c-20 0 -30 -5
-30 -15 0 -12 13 -15 55 -15 l55 0 0 150 0 150 75 0 75 0 0 50 c0 43 -3 50
-20 50 -16 0 -20 -7 -20 -35z"/>
<path d="M5750 1005 l0 -35 -80 0 -80 0 0 -88 c0 -87 8 -112 37 -112 10 0 13
22 13 85 l0 85 75 0 75 0 0 50 c0 43 -3 50 -20 50 -16 0 -20 -7 -20 -35z"/>
<path d="M1391 843 l-1 -183 -40 0 c-29 0 -40 -4 -40 -15 0 -12 14 -15 66 -15
l66 0 -4 153 c-4 129 -7 159 -25 197 l-22 45 0 -182z"/>
</g>
</svg>
